<mxfile host="app.diagrams.net" modified="2024-04-08T04:42:25.095Z" agent="Mozilla/5.0 (Windows NT 10.0; Win64; x64; rv:123.0) Gecko/20100101 Firefox/123.0" etag="X2fJ-byKfh5LaZT3qfLy" version="24.2.2" type="github">
  <diagram name="Page-1" id="_sjcTsf8RFoI4BERSUd0">
    <mxGraphModel dx="1434" dy="726" grid="1" gridSize="10" guides="1" tooltips="1" connect="1" arrows="1" fold="1" page="1" pageScale="1" pageWidth="850" pageHeight="1100" math="0" shadow="0">
      <root>
        <mxCell id="0" />
        <mxCell id="1" parent="0" />
        <UserObject label="https://www.nextantaerospace.com/wp-content/uploads/2019/09/PL-21-STC-ST10959SC-Information-Sheet.pdf" link="https://www.nextantaerospace.com/wp-content/uploads/2019/09/PL-21-STC-ST10959SC-Information-Sheet.pdf" id="5Iiy6G_lU83kQut6yfqz-1">
          <mxCell style="text;whiteSpace=wrap;" vertex="1" parent="1">
            <mxGeometry x="220" y="250" width="560" height="50" as="geometry" />
          </mxCell>
        </UserObject>
      </root>
    </mxGraphModel>
  </diagram>
</mxfile>
